<svg width="122" height="84" viewBox="0 0 122 84" fill="none" xmlns="http://www.w3.org/2000/svg" xmlns:xlink="http://www.w3.org/1999/xlink">
<path d="M0.561,0L30.889,0L30.889,12L46.052,12L46.052,24L76.38,24L76.38,12L91.544,12L91.544,0L121.872,0L121.872,12L106.708,12L106.708,24L91.544,24L91.544,36L76.38,36L76.38,48L91.544,48L91.544,60L106.708,60L106.708,72L121.872,72L121.872,84L91.544,84L91.544,72L76.38,72L76.38,60L46.052,60L46.052,72L30.889,72L30.889,84L0.561,84L0.561,72L15.725,72L15.725,60L30.889,60L30.889,48L46.052,48L46.052,36L30.889,36L30.889,24L15.725,24L15.725,12L0.561,12L0.561,0Z" clip-rule="evenodd" fill-rule="evenodd" fill="#000000"/>
</svg>
